<svg
width="26"
height="26"
viewBox="0 0 60 60"
fill="none"
xmlns="http://www.w3.org/2000/svg"
>
<path
    d="M54.3001 12.4C53.5001 11.3 52.7001 10.3 51.8001 9.29999L40.0001 17.9V19.9H44.0001L54.3001 12.4M16.5001 20L5.9001 12.2C5.5001 12.7 5.2001 13.2 4.8001 13.7C4.7001 13.8 4.7001 13.9 4.6001 13.9C4.3001 14.4 3.9001 15 3.6001 15.5L9.7001 20H16.5001Z"
    fill="#ED4C5C"
/>
<path
    d="M59.4 24H36V0.6C34.1 0.2 32.1 0 30 0C27.9 0 25.9 0.2 24 0.6V24H0.6C0.2 25.9 0 27.9 0 30C0 32.1 0.2 34.1 0.6 36H24V59.4C25.9 59.8 27.9 60 30 60C32.1 60 34.1 59.8 36 59.4V36H59.4C59.8 34.1 60 32.1 60 30C60 27.9 59.8 25.9 59.4 24Z"
    fill="#ED4C5C"
/>
<path
    d="M38.5001 24H59.3001C59.0001 22.6 58.6001 21.3 58.2001 20H53.1001L57.0001 17.1C56.2001 15.4 55.3001 13.9 54.2001 12.4L44.0001 20H40.0001V18L51.7001 9.39997L50.3001 7.99998L40.0001 15.5V1.69998C38.7001 1.19998 37.4001 0.899976 36.0001 0.599976V24H38.5001ZM0.600098 24H24.0001V0.599976C22.6001 0.899976 21.3001 1.29998 20.0001 1.69998V15.5L9.7001 7.99998C8.3001 9.29998 7.1001 10.7 5.9001 12.2L16.6001 20H9.8001L3.7001 15.5C3.4001 16 3.1001 16.6 2.9001 17.1L6.8001 20H1.7001C1.3001 21.3 0.900098 22.6 0.600098 24Z"
    fill="white"
/>
<path
    d="M40 1.70001V15.5L50.2999 7.90001C47.3999 5.20001 43.9 3.10001 40 1.70001ZM20 1.70001C16.1 3.10001 12.6 5.20001 9.69995 7.90001L20 15.6V1.70001ZM58.2999 20C57.9999 19 57.5999 18.1 57.0999 17.1L53.2 20H58.2999M6.79995 20L2.89995 17.1C2.49995 18.1 2.09995 19 1.69995 20H6.79995Z"
    fill="#2A5F9E"
/>
<path
    d="M5.69995 47.6C6.49995 48.7 7.29995 49.7 8.19995 50.7L20 42.1V40.1H16L5.69995 47.6ZM43.5 40L54.2 47.8C54.6 47.3 54.8999 46.8 55.2999 46.3C55.3999 46.2 55.4 46.1 55.5 46.1C55.8 45.6 56.2 45 56.5 44.5L50.2 40H43.5Z"
    fill="#ED4C5C"
/>
<path
    d="M21.5001 36H0.600098C0.900098 37.4 1.3001 38.7 1.7001 40H6.8001L2.9001 42.9C3.7001 44.6 4.6001 46.1 5.7001 47.6L16.0001 40H20.0001V42L8.3001 50.6L9.7001 52L20.0001 44.5V58.3C21.3001 58.8 22.6001 59.1 24.0001 59.4V36H21.5001ZM59.4001 36H36.0001V59.4C37.4001 59.1 38.7001 58.7 40.0001 58.3V44.5L50.3001 52C51.7001 50.7 52.9001 49.3 54.1001 47.8L43.4001 40H50.2001L56.3001 44.5C56.6001 44 56.9001 43.4 57.1001 42.9L53.2001 40H58.3001C58.7001 38.7 59.1001 37.4 59.4001 36"
    fill="white"
/>
<path
    d="M20 58.3V44.5L9.69995 52.1C12.6 54.8 16.1 56.9 20 58.3M40 58.3C43.9 56.9 47.3999 54.8 50.2999 52.1L40 44.4V58.3M1.69995 40C1.99995 41 2.39995 41.9 2.89995 42.9L6.79995 40H1.69995ZM53.2 40L57.0999 42.9C57.4999 42 57.8999 41 58.2999 40H53.2Z"
    fill="#2A5F9E"
/>
</svg>