<svg width="85" height="92" viewBox="0 0 85 92" fill="none" xmlns="http://www.w3.org/2000/svg">
<path d="M84.9996 33.8195C84.9778 28.0006 82.9962 22.3648 79.3839 17.8416C80.6108 12.6716 80.2273 7.24286 78.2894 2.30086C77.9073 1.34952 77.1239 0.622185 76.1563 0.317969C74.7862 -0.157718 69.6015 -1.04959 59.0374 5.88759V5.88897C54.4928 4.67353 49.8064 4.09968 45.1078 4.18404C40.4022 4.0983 35.7078 4.67215 31.1576 5.88897C20.3192 -1.2074 14.6843 -0.0583517 13.5503 0.278998C12.5772 0.595649 11.7953 1.33819 11.4172 2.30058C9.47386 7.22595 9.07672 12.6395 10.2831 17.8027C6.55189 22.3022 4.56365 28.0227 4.68767 33.8981C4.68767 55.8234 17.071 62.444 28.4187 64.7835C27.836 66.227 27.4348 67.7384 27.226 69.283C27.2055 69.4475 27.2055 69.6148 27.226 69.7794V75.8442C16.8966 76.7167 14.6855 70.5911 14.4699 69.8969V69.8983C14.4194 69.7365 14.3607 69.5775 14.2925 69.4212C12.2973 65.298 8.78577 62.1298 4.51023 60.6006C2.717 59.9936 0.7762 60.9739 0.177387 62.7909C-0.421707 64.6078 0.545863 66.5743 2.33909 67.1824C4.70821 68.0494 6.68451 69.7613 7.89611 71.9984C9.26629 76.4979 14.8618 83.6148 27.1864 82.8212V88.5307C27.1864 90.4472 28.7189 92 30.6104 92C32.5006 92 34.0345 90.4472 34.0345 88.5307V70.0363C34.2938 68.0161 35.1618 66.1272 36.5183 64.6242C37.4899 63.7032 37.8421 62.2942 37.4217 61.0153C37.0014 59.7376 35.8837 58.8236 34.5626 58.677C22.6283 57.2694 11.5946 53.2858 11.5946 33.7595H11.5932C11.4336 28.9945 13.25 24.3789 16.6018 21.0327C17.5107 20.0426 17.8109 18.628 17.3851 17.3462C16.2319 13.953 16.1569 10.2789 17.1695 6.83993C21.3699 7.80093 25.3153 9.67458 28.7314 12.331C29.6212 12.9269 30.7307 13.0804 31.7447 12.7472C36.0925 11.4059 40.6235 10.7837 45.1666 10.904C49.7014 10.7837 54.2271 11.4059 58.568 12.7472C59.5819 13.0832 60.6928 12.9297 61.5813 12.331C64.8716 9.77561 68.6381 7.92136 72.6544 6.87887C73.652 10.3565 73.5633 14.0609 72.3992 17.4847C72.0103 18.6476 72.2641 19.9335 73.0652 20.8544C76.3036 24.3583 78.138 28.96 78.2103 33.7597C78.2103 53.2456 66.6089 57.2903 55.2423 58.6772C53.8489 58.8348 52.693 59.8401 52.33 61.2118C51.967 62.5835 52.4705 64.0396 53.5992 64.883C54.8124 65.815 56.2208 68.431 56.2208 72.8116V88.5116C56.2208 90.4281 57.7533 91.981 59.6435 91.981C61.535 91.981 63.0676 90.4281 63.0676 88.5116V72.8116C63.103 70.0502 62.6049 67.3096 61.6005 64.7432C70.7958 62.7617 85 56.6362 85 33.8193L84.9996 33.8195Z" fill="white"/>
</svg>
