<svg width="10" height="10" viewBox="0 0 10 10" fill="none" xmlns="http://www.w3.org/2000/svg">
<path d="M3.75035 0.173333C3.81136 0.247469 3.84874 0.338198 3.85766 0.433796C3.86657 0.529394 3.84661 0.625469 3.80036 0.709606C3.43898 1.37306 3.25026 2.11672 3.25155 2.8722C3.25155 5.38543 5.3005 7.42051 7.82573 7.42051C8.15514 7.42051 8.47579 7.38614 8.78395 7.32051C8.87841 7.30005 8.9768 7.30788 9.06685 7.343C9.15689 7.37813 9.23459 7.439 9.29024 7.51802C9.34899 7.60017 9.37894 7.69944 9.37544 7.80038C9.37194 7.90132 9.33517 7.99828 9.27087 8.07616C8.78062 8.67834 8.16217 9.16352 7.46059 9.49634C6.75902 9.82916 5.99201 10.0012 5.21549 9.99999C2.33397 9.99999 0 7.67865 0 4.81853C0 2.66594 1.32137 0.81961 3.2028 0.0370778C3.29652 -0.00252899 3.40056 -0.0106581 3.4993 0.0139116C3.59803 0.0384813 3.68613 0.094423 3.75035 0.173333Z" fill="#383838"/>
<path d="M6.74703 1.9672C6.75599 1.94013 6.77326 1.91657 6.79637 1.89988C6.81949 1.88319 6.84728 1.8742 6.87579 1.8742C6.9043 1.8742 6.93209 1.88319 6.95521 1.89988C6.97832 1.91657 6.99559 1.94013 7.00455 1.9672L7.24645 2.69348C7.35458 3.01724 7.60836 3.271 7.93214 3.37913L8.65846 3.62101C8.68552 3.62998 8.70908 3.64724 8.72578 3.67036C8.74247 3.69347 8.75146 3.72126 8.75146 3.74977C8.75146 3.77828 8.74247 3.80607 8.72578 3.82918C8.70908 3.8523 8.68552 3.86956 8.65846 3.87853L7.93214 4.12041C7.77245 4.17361 7.62735 4.26327 7.50833 4.38228C7.38932 4.50129 7.29965 4.64639 7.24645 4.80606L7.00455 5.53234C6.99559 5.55941 6.97832 5.58297 6.95521 5.59966C6.93209 5.61635 6.9043 5.62534 6.87579 5.62534C6.84728 5.62534 6.81949 5.61635 6.79637 5.59966C6.77326 5.58297 6.75599 5.55941 6.74703 5.53234L6.50513 4.80606C6.45193 4.64639 6.36226 4.50129 6.24325 4.38228C6.12423 4.26327 5.97913 4.17361 5.81944 4.12041L5.09312 3.87853C5.06605 3.86956 5.0425 3.8523 5.0258 3.82918C5.00911 3.80607 5.00012 3.77828 5.00012 3.74977C5.00012 3.72126 5.00911 3.69347 5.0258 3.67036C5.0425 3.64724 5.06605 3.62998 5.09312 3.62101L5.81944 3.37913C5.97913 3.32593 6.12423 3.23627 6.24325 3.11726C6.36226 2.99825 6.45193 2.85315 6.50513 2.69348L6.74703 1.9672ZM8.66533 0.061491C8.6715 0.0436942 8.68306 0.0282621 8.69841 0.0173402C8.71376 0.00641825 8.73213 0.000549316 8.75096 0.000549316C8.7698 0.000549316 8.78817 0.00641825 8.80352 0.0173402C8.81887 0.0282621 8.83043 0.0436942 8.8366 0.061491L8.99786 0.545261C9.06975 0.76152 9.23914 0.930902 9.45541 1.00278L9.9392 1.16404C9.957 1.17021 9.97243 1.18177 9.98335 1.19712C9.99428 1.21246 10.0001 1.23083 10.0001 1.24967C10.0001 1.2685 9.99428 1.28687 9.98335 1.30222C9.97243 1.31756 9.957 1.32912 9.9392 1.33529L9.45541 1.49655C9.34883 1.532 9.25198 1.59181 9.17256 1.67123C9.09313 1.75065 9.03332 1.8475 8.99786 1.95407L8.8366 2.43784C8.83043 2.45564 8.81887 2.47107 8.80352 2.48199C8.78817 2.49291 8.7698 2.49878 8.75096 2.49878C8.73213 2.49878 8.71376 2.49291 8.69841 2.48199C8.68306 2.47107 8.6715 2.45564 8.66533 2.43784L8.50407 1.95407C8.46861 1.8475 8.4088 1.75065 8.32937 1.67123C8.24995 1.59181 8.1531 1.532 8.04652 1.49655L7.56273 1.33529C7.54493 1.32912 7.5295 1.31756 7.51858 1.30222C7.50765 1.28687 7.50178 1.2685 7.50178 1.24967C7.50178 1.23083 7.50765 1.21246 7.51858 1.19712C7.5295 1.18177 7.54493 1.17021 7.56273 1.16404L8.04652 1.00278C8.26279 0.930902 8.43218 0.76152 8.50407 0.545261L8.66533 0.062116V0.061491Z" fill="#383838"/>
</svg>
