<svg width="14" height="14" viewBox="0 0 11 10" fill="none" xmlns="http://www.w3.org/2000/svg">
<path d="M5.09084 2.72726C4.48808 2.72726 3.91 2.96671 3.48378 3.39293C3.05756 3.81915 2.81812 4.39723 2.81812 4.99999C2.81812 5.60276 3.05756 6.18083 3.48378 6.60705C3.91 7.03327 4.48808 7.27272 5.09084 7.27272C5.69361 7.27272 6.27168 7.03327 6.6979 6.60705C7.12412 6.18083 7.36357 5.60276 7.36357 4.99999C7.36357 4.39723 7.12412 3.81915 6.6979 3.39293C6.27168 2.96671 5.69361 2.72726 5.09084 2.72726Z" fill="#EADA4F"/>
<path fill-rule="evenodd" clip-rule="evenodd" d="M5.09094 0C5.2115 0 5.32711 0.0478895 5.41235 0.133133C5.4976 0.218377 5.54549 0.333993 5.54549 0.454545V0.909091C5.54549 1.02964 5.4976 1.14526 5.41235 1.2305C5.32711 1.31575 5.2115 1.36364 5.09094 1.36364C4.97039 1.36364 4.85477 1.31575 4.76953 1.2305C4.68429 1.14526 4.6364 1.02964 4.6364 0.909091V0.454545C4.6364 0.333993 4.68429 0.218377 4.76953 0.133133C4.85477 0.0478895 4.97039 0 5.09094 0ZM1.13322 1.04227C1.21845 0.957059 1.33405 0.909188 1.45458 0.909188C1.57511 0.909188 1.6907 0.957059 1.77594 1.04227L2.45776 1.72409C2.54056 1.80982 2.58638 1.92464 2.58534 2.04382C2.5843 2.163 2.5365 2.277 2.45222 2.36128C2.36795 2.44556 2.25394 2.49336 2.13476 2.4944C2.01558 2.49543 1.90076 2.44962 1.81503 2.36682L1.13322 1.685C1.048 1.59976 1.00013 1.48417 1.00013 1.36364C1.00013 1.24311 1.048 1.12751 1.13322 1.04227ZM9.04867 1.04227C9.13388 1.12751 9.18176 1.24311 9.18176 1.36364C9.18176 1.48417 9.13388 1.59976 9.04867 1.685L8.36685 2.36682C8.32492 2.41023 8.27477 2.44486 8.21931 2.46868C8.16385 2.4925 8.10421 2.50504 8.04385 2.50557C7.9835 2.50609 7.92364 2.49459 7.86778 2.47174C7.81192 2.44888 7.76117 2.41513 7.71849 2.37245C7.67581 2.32977 7.64206 2.27902 7.6192 2.22316C7.59635 2.1673 7.58485 2.10744 7.58537 2.04709C7.5859 1.98674 7.59844 1.92709 7.62226 1.87163C7.64608 1.81618 7.68071 1.76602 7.72412 1.72409L8.40594 1.04227C8.49118 0.957059 8.60678 0.909188 8.72731 0.909188C8.84784 0.909188 8.96343 0.957059 9.04867 1.04227ZM0.0909424 5C0.0909424 4.87945 0.138832 4.76383 0.224076 4.67859C0.309319 4.59334 0.424935 4.54545 0.545488 4.54545H1.00003C1.12059 4.54545 1.2362 4.59334 1.32145 4.67859C1.40669 4.76383 1.45458 4.87945 1.45458 5C1.45458 5.12055 1.40669 5.23617 1.32145 5.32141C1.2362 5.40666 1.12059 5.45455 1.00003 5.45455H0.545488C0.424935 5.45455 0.309319 5.40666 0.224076 5.32141C0.138832 5.23617 0.0909424 5.12055 0.0909424 5ZM8.72731 5C8.72731 4.87945 8.7752 4.76383 8.86044 4.67859C8.94568 4.59334 9.0613 4.54545 9.18185 4.54545H9.6364C9.75695 4.54545 9.87257 4.59334 9.95781 4.67859C10.0431 4.76383 10.0909 4.87945 10.0909 5C10.0909 5.12055 10.0431 5.23617 9.95781 5.32141C9.87257 5.40666 9.75695 5.45455 9.6364 5.45455H9.18185C9.0613 5.45455 8.94568 5.40666 8.86044 5.32141C8.7752 5.23617 8.72731 5.12055 8.72731 5ZM2.45776 7.63318C2.54297 7.71842 2.59085 7.83402 2.59085 7.95455C2.59085 8.07508 2.54297 8.19067 2.45776 8.27591L1.77594 8.95773C1.69021 9.04053 1.57539 9.08634 1.45621 9.08531C1.33703 9.08427 1.22303 9.03647 1.13875 8.95219C1.05448 8.86791 1.00667 8.75391 1.00564 8.63473C1.0046 8.51555 1.05042 8.40073 1.13322 8.315L1.81503 7.63318C1.90027 7.54797 2.01587 7.5001 2.1364 7.5001C2.25693 7.5001 2.37252 7.54797 2.45776 7.63318ZM7.72412 7.63318C7.80936 7.54797 7.92496 7.5001 8.04549 7.5001C8.16602 7.5001 8.28161 7.54797 8.36685 7.63318L9.04867 8.315C9.13147 8.40073 9.17729 8.51555 9.17625 8.63473C9.17521 8.75391 9.12741 8.86791 9.04313 8.95219C8.95886 9.03647 8.84485 9.08427 8.72567 9.08531C8.60649 9.08634 8.49167 9.04053 8.40594 8.95773L7.72412 8.27591C7.63891 8.19067 7.59104 8.07508 7.59104 7.95455C7.59104 7.83402 7.63891 7.71842 7.72412 7.63318ZM5.09094 8.63636C5.2115 8.63636 5.32711 8.68425 5.41235 8.7695C5.4976 8.85474 5.54549 8.97036 5.54549 9.09091V9.54545C5.54549 9.66601 5.4976 9.78162 5.41235 9.86687C5.32711 9.95211 5.2115 10 5.09094 10C4.97039 10 4.85477 9.95211 4.76953 9.86687C4.68429 9.78162 4.6364 9.66601 4.6364 9.54545V9.09091C4.6364 8.97036 4.68429 8.85474 4.76953 8.7695C4.85477 8.68425 4.97039 8.63636 5.09094 8.63636Z" fill="#EADA4F"/>
</svg>
