<svg width="24" height="24" viewBox="0 0 24 24" fill="none" xmlns="http://www.w3.org/2000/svg">
<path d="M23.5463 10.9305L13.0669 0.452798C12.9234 0.309248 12.753 0.195374 12.5655 0.117681C12.378 0.0399886 12.177 0 11.9741 0C11.7711 0 11.5701 0.0399886 11.3826 0.117681C11.1951 0.195374 11.0247 0.309248 10.8813 0.452798L8.70617 2.62784L11.4663 5.38788C11.7918 5.27675 12.142 5.25936 12.4769 5.33771C12.8119 5.41606 13.118 5.58698 13.3605 5.83098C13.6029 6.07498 13.7719 6.38222 13.8481 6.71764C13.9243 7.05305 13.9046 7.40314 13.7914 7.72793L16.451 10.389C16.8445 10.2504 17.2734 10.25 17.6672 10.3878C18.0609 10.5256 18.396 10.7933 18.6173 11.1469C18.8386 11.5006 18.9328 11.919 18.8845 12.3334C18.8362 12.7477 18.6483 13.1333 18.3516 13.4265C18.0513 13.7287 17.6553 13.9172 17.2314 13.9599C16.8075 14.0026 16.3819 13.8968 16.0274 13.6605C15.6729 13.4243 15.4113 13.0723 15.2875 12.6646C15.1637 12.257 15.1852 11.819 15.3485 11.4255L12.8688 8.94445V15.4741C13.2458 15.6606 13.5473 15.9707 13.7233 16.3527C13.8993 16.7346 13.939 17.1653 13.836 17.5731C13.7329 17.9808 13.4931 18.3408 13.1567 18.5932C12.8204 18.8456 12.4076 18.9751 11.9873 18.9601C11.5671 18.9451 11.1646 18.7865 10.8471 18.5107C10.5296 18.235 10.3162 17.8587 10.2424 17.4447C10.1687 17.0307 10.239 16.6039 10.4418 16.2355C10.6446 15.8671 10.9675 15.5793 11.3568 15.4201V8.83045C11.1322 8.73843 10.9281 8.60287 10.7561 8.43158C10.5842 8.26029 10.4479 8.05667 10.355 7.83245C10.2621 7.60823 10.2145 7.36784 10.215 7.12515C10.2155 6.88246 10.264 6.64226 10.3577 6.4184L7.63812 3.69736L0.45281 10.8825C0.309256 11.026 0.195379 11.1963 0.117684 11.3838C0.0399897 11.5713 0 11.7723 0 11.9753C0 12.1782 0.0399897 12.3792 0.117684 12.5667C0.195379 12.7542 0.309256 12.9245 0.45281 13.068L10.9323 23.5472C11.0757 23.6908 11.2461 23.8046 11.4336 23.8823C11.6211 23.96 11.8221 24 12.0251 24C12.228 24 12.429 23.96 12.6165 23.8823C12.804 23.8046 12.9744 23.6908 13.1179 23.5472L23.5478 13.1175C23.8374 12.8276 24 12.4345 24 12.0248C24 11.615 23.8374 11.2219 23.5478 10.932" fill="#383838"/>
</svg>
