<svg width="85" height="86" viewBox="0 0 85 86" fill="none" xmlns="http://www.w3.org/2000/svg">
<path fill-rule="evenodd" clip-rule="evenodd" d="M31.5732 29.9667H47.3577V37.9217C49.6315 33.3465 55.4625 29.2357 64.2218 29.2357C81.0135 29.2357 85 38.3431 85 55.0529V86H68V58.8584C68 49.3425 65.7263 43.9761 59.9378 43.9761C51.9095 43.9761 48.5732 49.7596 48.5732 58.8541V86H31.5732V29.9667V29.9667ZM2.4225 85.269H19.4225V29.2357H2.4225V85.269V85.269ZM21.8578 10.965C21.8584 12.4067 21.5758 13.8341 21.0264 15.1643C20.477 16.4945 19.6718 17.701 18.6575 18.7136C16.6022 20.7803 13.8202 21.9371 10.9225 21.93C8.02991 21.928 5.25432 20.7742 3.196 18.7179C2.1854 17.7019 1.38289 16.494 0.834461 15.1637C0.286031 13.8333 0.00246131 12.4065 0 10.965C0 8.0539 1.1475 5.2675 3.20025 3.2121C5.25676 1.15308 8.03352 -0.00128661 10.9268 1.07614e-06C13.8253 1.07614e-06 16.6047 1.1567 18.6575 3.2121C20.706 5.2675 21.8578 8.0539 21.8578 10.965Z" fill="white"/>
</svg>
