<svg width="17" height="11" viewBox="0 0 17 11" fill="none" xmlns="http://www.w3.org/2000/svg">
<path d="M3.842 10.14C3.21667 10.14 2.638 10.0187 2.106 9.776C1.58333 9.53333 1.154 9.18333 0.818 8.726L1.854 7.48C2.12467 7.85333 2.41867 8.13333 2.736 8.32C3.06267 8.50667 3.41733 8.6 3.8 8.6C4.81733 8.6 5.326 7.998 5.326 6.794V1.726H1.84V0.199999H7.146V6.696C7.146 7.85333 6.86133 8.71667 6.292 9.286C5.732 9.85533 4.91533 10.14 3.842 10.14ZM12.7368 10.14C11.9715 10.14 11.2388 10.0327 10.5388 9.818C9.83881 9.594 9.28348 9.30933 8.87281 8.964L9.50281 7.55C9.89481 7.858 10.3801 8.11467 10.9588 8.32C11.5375 8.52533 12.1301 8.628 12.7368 8.628C13.2501 8.628 13.6655 8.572 13.9828 8.46C14.3001 8.348 14.5335 8.19867 14.6828 8.012C14.8321 7.816 14.9068 7.59667 14.9068 7.354C14.9068 7.05533 14.7995 6.81733 14.5848 6.64C14.3701 6.45333 14.0901 6.30867 13.7448 6.206C13.4088 6.094 13.0308 5.99133 12.6108 5.898C12.2001 5.80467 11.7848 5.69733 11.3648 5.576C10.9541 5.44533 10.5761 5.282 10.2308 5.086C9.89481 4.88067 9.61948 4.61 9.40481 4.274C9.19015 3.938 9.08281 3.50867 9.08281 2.986C9.08281 2.454 9.22281 1.96867 9.50281 1.53C9.79215 1.082 10.2261 0.727333 10.8048 0.465999C11.3928 0.195333 12.1348 0.0599995 13.0308 0.0599995C13.6188 0.0599995 14.2021 0.134666 14.7808 0.284C15.3595 0.433333 15.8635 0.648 16.2928 0.928L15.7188 2.342C15.2801 2.08067 14.8275 1.88933 14.3608 1.768C13.8941 1.63733 13.4461 1.572 13.0168 1.572C12.5128 1.572 12.1021 1.63267 11.7848 1.754C11.4768 1.87533 11.2481 2.034 11.0988 2.23C10.9588 2.426 10.8888 2.65 10.8888 2.902C10.8888 3.20067 10.9915 3.44333 11.1968 3.63C11.4115 3.80733 11.6868 3.94733 12.0228 4.05C12.3681 4.15267 12.7508 4.25533 13.1708 4.358C13.5908 4.45133 14.0061 4.55867 14.4168 4.68C14.8368 4.80133 15.2148 4.96 15.5508 5.156C15.8961 5.352 16.1715 5.618 16.3768 5.954C16.5915 6.29 16.6988 6.71467 16.6988 7.228C16.6988 7.75067 16.5541 8.236 16.2648 8.684C15.9848 9.12267 15.5508 9.47733 14.9628 9.748C14.3748 10.0093 13.6328 10.14 12.7368 10.14Z" fill="#383838"/>
</svg>
