<svg width="29" height="26" viewBox="0 0 29 26" fill="none" xmlns="http://www.w3.org/2000/svg">
<path d="M23.1226 8.12747C22.823 8.02514 22.5212 7.92983 22.2174 7.84156C22.2677 7.6365 22.3142 7.43027 22.3568 7.22286C23.0423 3.88918 22.5941 1.20348 21.0643 0.319375C19.5996 -0.528987 17.1975 0.355114 14.7743 2.46899C14.536 2.67756 14.3026 2.89239 14.0741 3.11346C13.9218 2.9666 13.7656 2.82286 13.6054 2.68225C11.0656 0.421905 8.51995 -0.530159 6.99196 0.356872C5.52724 1.20699 5.09193 3.73157 5.70887 6.89125C5.77058 7.20372 5.83991 7.51483 5.91686 7.82457C5.55654 7.9271 5.20852 8.03666 4.87574 8.15266C1.90178 9.19261 0 10.8231 0 12.514C0 14.2611 2.04122 16.0129 5.14232 17.0751C5.39386 17.1607 5.64774 17.2401 5.90397 17.3136C5.82077 17.6452 5.74715 17.9805 5.68309 18.3195C5.0972 21.4247 5.55419 23.8895 7.01598 24.7344C8.52581 25.6068 11.0586 24.7104 13.5275 22.5485C13.7228 22.3774 13.9181 22.1967 14.1134 22.0065C14.3602 22.2452 14.6141 22.4768 14.875 22.7014C17.2655 24.7625 19.626 25.5951 21.0854 24.7479C22.5941 23.8726 23.0845 21.2244 22.4476 18.0026C22.3988 17.7565 22.3425 17.5053 22.2789 17.2491C22.457 17.1964 22.6314 17.1419 22.8021 17.0857C26.0244 16.0152 28.1237 14.2845 28.1237 12.5158C28.1225 10.8167 26.1598 9.17562 23.1226 8.12747ZM15.5646 3.37711C17.6404 1.56614 19.5809 0.851359 20.4656 1.36225C21.4071 1.90654 21.7733 4.10127 21.1815 6.97972C21.1425 7.1672 21.1003 7.3541 21.055 7.54041C19.8162 7.25864 18.56 7.05978 17.2948 6.94515C16.5703 5.90162 15.7762 4.90823 14.9178 3.97179C15.128 3.7679 15.3432 3.56967 15.5635 3.37711H15.5646ZM8.30375 13.9588C8.55803 14.4509 8.82383 14.937 9.10114 15.4171C9.38354 15.9069 9.67785 16.3894 9.98407 16.8648C9.11349 16.7701 8.24836 16.6307 7.39212 16.447C7.64053 15.6432 7.94636 14.8083 8.30375 13.9588ZM8.30375 11.1272C7.95222 10.2958 7.65459 9.47794 7.41028 8.68816C8.21294 8.5083 9.06834 8.36124 9.96005 8.24992C9.66125 8.71628 9.37378 9.18948 9.09763 9.66952C8.82148 10.1496 8.55627 10.6355 8.302 11.1272H8.30375ZM8.94237 12.5433C9.31265 11.7711 9.71144 11.0137 10.1387 10.2712C10.5657 9.5291 11.0201 8.80397 11.5021 8.09583C12.3387 8.03256 13.1965 7.99916 14.063 7.99916C14.9295 7.99916 15.7925 8.03256 16.6286 8.09642C17.1055 8.803 17.5572 9.52559 17.9838 10.2642C18.4103 11.0028 18.8143 11.7566 19.196 12.5257C18.8194 13.3006 18.4163 14.0611 17.9867 14.8072C17.5605 15.5493 17.1114 16.2766 16.6391 16.989C15.8043 17.0476 14.9401 17.0798 14.0613 17.0798C13.1824 17.0798 12.3346 17.0523 11.515 16.9989C11.0295 16.2885 10.5713 15.5602 10.1405 14.8142C9.70968 14.0682 9.30972 13.3112 8.94061 12.5433H8.94237ZM19.0266 15.4089C19.3098 14.9175 19.5817 14.4197 19.8422 13.9154C20.1993 14.7252 20.5145 15.5528 20.7866 16.3949C19.9203 16.59 19.0444 16.7396 18.1624 16.8431C18.4601 16.3709 18.7481 15.8928 19.0266 15.4089ZM19.8305 11.1278C19.5711 10.6337 19.3014 10.1455 19.0214 9.66308C18.7479 9.18734 18.463 8.71746 18.1666 8.25344C19.0635 8.3671 19.9242 8.51826 20.731 8.70281C20.4716 9.5257 20.171 10.335 19.8305 11.1278V11.1278ZM14.0747 4.83245C14.6598 5.47171 15.2122 6.14008 15.7299 6.83501C14.6225 6.78228 13.5144 6.78228 12.4055 6.83501C12.9522 6.11202 13.5117 5.44119 14.0747 4.83245ZM7.59659 1.39799C8.53752 0.851945 10.618 1.63234 12.811 3.58158C12.951 3.70638 13.0922 3.83703 13.2328 3.97237C12.37 4.90869 11.5703 5.90121 10.8389 6.9434C9.57644 7.05714 8.32274 7.25285 7.0857 7.52928C7.01422 7.24181 6.94977 6.95238 6.89236 6.661C6.36213 3.95245 6.71308 1.91064 7.59659 1.39799ZM6.22503 16.1535C5.99068 16.0867 5.75925 16.0143 5.53076 15.9362C4.15979 15.4674 3.02727 14.8558 2.2498 14.1896C1.55377 13.5926 1.20107 12.9968 1.20107 12.514C1.20107 11.4881 2.72788 10.1792 5.27414 9.29162C5.59403 9.18031 5.91666 9.07856 6.24202 8.98638C6.62018 10.2017 7.07817 11.3907 7.613 12.5456C7.0718 13.7166 6.60814 14.9218 6.22503 16.1535V16.1535ZM12.736 21.6415C11.6445 22.5977 10.5512 23.2755 9.58743 23.6171C8.72149 23.9235 8.0319 23.9323 7.61534 23.6915C6.72831 23.1789 6.3592 21.1992 6.86248 18.5439C6.92224 18.2315 6.99059 17.919 7.06754 17.6065C8.31696 17.8757 9.58325 18.0595 10.8576 18.1567C11.5962 19.2043 12.4025 20.2024 13.2715 21.1447C13.0969 21.3163 12.9182 21.4816 12.736 21.6415ZM14.1081 20.2811C13.5386 19.6653 12.9703 18.9839 12.4161 18.2516C12.9547 18.2727 13.5031 18.2832 14.0613 18.2832C14.6342 18.2832 15.2014 18.2709 15.7603 18.2457C15.2445 18.9518 14.6931 19.6311 14.1081 20.2811V20.2811ZM21.4036 21.9561C21.236 22.8607 20.8991 23.4642 20.4826 23.7056C19.5961 24.22 17.7008 23.5515 15.6572 21.7886C15.4228 21.587 15.1885 21.3708 14.95 21.1441C15.8021 20.1982 16.5895 19.196 17.3071 18.1444C18.5885 18.0358 19.8609 17.839 21.1153 17.5555C21.1727 17.7876 21.2235 18.0149 21.2676 18.2375C21.5495 19.6612 21.5899 20.949 21.4036 21.9561V21.9561ZM22.423 15.9426C22.2695 15.9936 22.1113 16.0428 21.9508 16.0908C21.5575 14.8698 21.0816 13.6769 20.5265 12.5204C21.0608 11.3794 21.518 10.2038 21.8951 9.00161C22.1828 9.08539 22.4623 9.17328 22.7312 9.26643C25.3337 10.164 26.9214 11.4928 26.9214 12.514C26.9214 13.6037 25.2066 15.0181 22.423 15.9426V15.9426Z" fill="#383838"/>
<path d="M14.0613 15.0309C14.5599 15.0325 15.0478 14.8862 15.4632 14.6103C15.8785 14.3345 16.2027 13.9416 16.3947 13.4814C16.5866 13.0212 16.6377 12.5144 16.5414 12.0252C16.4451 11.5359 16.2058 11.0863 15.8538 10.7331C15.5018 10.38 15.0529 10.1392 14.564 10.0413C14.0751 9.94345 13.5681 9.99286 13.1073 10.1833C12.6465 10.3737 12.2525 10.6966 11.9753 11.1111C11.6981 11.5256 11.5502 12.013 11.5502 12.5116C11.5495 12.8419 11.6139 13.1692 11.7398 13.4746C11.8656 13.7801 12.0504 14.0577 12.2836 14.2917C12.5168 14.5256 12.7939 14.7114 13.0989 14.8382C13.4039 14.965 13.7309 15.0305 14.0613 15.0309Z" fill="#383838"/>
</svg>
