<svg width="28" height="26" viewBox="0 0 28 26" fill="none" xmlns="http://www.w3.org/2000/svg">
<path d="M19.401 18.1582C20.4343 18.0536 21.2182 17.1823 21.1825 16.1367C21.147 15.0912 20.2561 14.2547 19.1872 14.2547H19.116C18.0113 14.2895 17.1562 15.1957 17.1919 16.2761C17.2275 16.7989 17.4413 17.252 17.7619 17.5656C16.5505 19.9008 14.6977 21.6085 11.9185 23.0375C10.03 24.0134 8.07034 24.3619 6.11067 24.118C4.50723 23.9088 3.26014 23.2119 2.47614 22.0616C1.33601 20.3539 1.22915 18.5066 2.19122 16.6595C2.86825 15.3351 3.93706 14.3592 4.61409 13.8713C4.47158 13.4182 4.25775 12.6515 4.15089 12.0939C-1.01566 15.7534 -0.481142 20.7024 1.08664 23.0375C2.26242 24.7802 4.64975 25.8606 7.28645 25.8606C7.99903 25.8606 8.71161 25.7909 9.42429 25.6167C13.9851 24.7453 17.4414 22.0965 19.401 18.1582ZM25.6722 13.8365C22.9642 10.7346 18.9735 9.02684 14.4127 9.02684H13.8426C13.5219 8.3995 12.8449 7.9812 12.0967 7.9812H12.0253C10.9209 8.01608 10.0658 8.92221 10.1013 10.0027C10.137 11.0482 11.0277 11.8847 12.0967 11.8847H12.1679C12.9517 11.8498 13.6288 11.3619 13.9138 10.6997H14.5552C17.2632 10.6997 19.8286 11.4664 22.1447 12.9651C23.9262 14.1153 25.209 15.614 25.9215 17.4262C26.5273 18.89 26.4916 20.319 25.8502 21.5389C24.8526 23.386 23.178 24.3968 20.9688 24.3968C19.5436 24.3968 18.1896 23.9785 17.4769 23.6648C17.085 24.0134 16.3723 24.5709 15.8735 24.9196C17.4057 25.6166 18.9735 26 20.47 26C23.8906 26 26.4204 24.1528 27.3825 22.3056C28.4157 20.2841 28.3444 16.7989 25.6722 13.8365ZM7.57148 18.7505C7.60714 19.7962 8.49789 20.6326 9.56681 20.6326H9.63812C10.7427 20.5978 11.5978 19.6915 11.5621 18.6111C11.5266 17.5655 10.6357 16.7291 9.56681 16.7291H9.49561C9.42429 16.7291 9.31733 16.7291 9.24623 16.7639C7.78531 14.394 7.17959 11.815 7.39342 9.02673C7.53583 6.93557 8.24851 5.12321 9.49561 3.62451C10.5289 2.33497 12.5242 1.70763 13.8783 1.67286C17.6551 1.60311 19.2584 6.20361 19.3654 8.05085C19.8286 8.15537 20.6125 8.39939 21.147 8.57366C20.7193 2.92764 17.1562 0 13.7357 0C10.5289 0 7.57148 2.26543 6.39559 5.61126C4.75661 10.0724 5.82553 14.3592 7.82086 17.7399C7.64279 17.9838 7.53583 18.3672 7.57148 18.7507V18.7505Z" fill="#383838"/>
</svg>
