<svg width="30" height="22" viewBox="0 0 30 22" fill="none" xmlns="http://www.w3.org/2000/svg">
<path d="M14.1477 16.6323C14.1336 16.6598 14.1196 16.6818 14.1477 16.6323V16.6323ZM25.824 12.6451C24.881 12.6451 23.9511 12.8559 23.1055 13.2638C22.829 12.7184 22.5431 12.2418 22.4962 11.8843C22.44 11.4673 22.3791 11.2198 22.4447 10.7248C22.5103 10.2299 22.8056 9.5287 22.8009 9.47828C22.7962 9.42787 22.7353 9.17581 22.1306 9.17122C21.526 9.16664 21.0058 9.2858 20.9448 9.44162C20.8378 9.72632 20.7548 10.0191 20.6964 10.317C20.5886 10.8532 19.4881 12.7688 18.8647 13.7679C18.6585 13.3784 18.4851 13.0347 18.4476 12.7597C18.3913 12.3426 18.3304 12.0952 18.396 11.6002C18.4616 11.1052 18.7569 10.404 18.7522 10.3536C18.7475 10.3032 18.6866 10.0512 18.0829 10.0466C17.4792 10.042 16.958 10.1611 16.8971 10.317C16.8362 10.4728 16.7705 10.8394 16.6487 11.1923C16.5268 11.5452 15.0598 14.7349 14.6764 15.5645C14.4795 15.9861 14.3108 16.3252 14.1889 16.5544C14.1702 16.591 14.1561 16.614 14.1467 16.6323C14.1608 16.6094 14.1702 16.5865 14.1702 16.5956C14.0671 16.7927 14.0061 16.9027 14.0061 16.9027V16.9073C13.9265 17.0539 13.8374 17.1868 13.7952 17.1868C13.7671 17.1868 13.7062 16.8019 13.8093 16.2748C14.0296 15.1657 14.5498 13.4425 14.5451 13.383C14.5405 13.3509 14.6436 13.053 14.203 12.8926C13.7765 12.7414 13.6218 12.9934 13.5843 12.9934C13.5468 12.9934 13.5187 13.0851 13.5187 13.0851C13.5187 13.0851 13.9921 11.1419 12.6094 11.1419C11.747 11.1419 10.5471 12.0677 9.95747 12.9063C9.58719 13.1034 8.78571 13.5296 7.94204 13.9833L6.97182 14.5058C6.94839 14.4829 6.92964 14.46 6.9062 14.437C5.22824 12.6864 2.13105 11.449 2.26229 9.0979C2.30916 8.24088 2.61381 5.99065 8.21858 3.25921C12.8119 1.02272 16.4837 1.63684 17.1164 3.00256C18.0257 4.95032 15.1526 8.57544 10.383 9.0979C8.56448 9.29496 7.60926 8.60752 7.37022 8.35087C7.12181 8.08048 7.08431 8.06673 6.99057 8.11714C6.8359 8.19964 6.93433 8.43795 6.99057 8.58002C7.13118 8.94208 7.71706 9.58369 8.7154 9.9045C9.59188 10.1841 11.7235 10.3399 14.3005 9.36371C17.1961 8.27296 19.4506 5.23446 18.7888 2.69092C18.1157 0.10613 13.7324 -0.741717 9.58813 0.697332C7.11806 1.55435 4.44738 2.90174 2.52663 4.65701C0.244047 6.74684 -0.120605 8.56627 0.0293804 9.32704C0.563703 12.0264 4.36864 13.7863 5.89099 15.0878L5.68007 15.2024C4.91609 15.5736 2.01575 17.0585 1.28926 18.6259C0.469025 20.4041 1.42518 21.6781 2.05231 21.8523C4.01149 22.3839 6.0166 21.4261 7.09462 19.8541C8.17264 18.2822 8.04141 16.229 7.54458 15.2941C7.53989 15.2803 7.53052 15.2711 7.52583 15.2574C8.08825 14.9317 8.65544 14.6139 9.22723 14.3041C9.03974 14.7991 8.90382 15.3949 8.83352 16.2565C8.74915 17.2647 9.17567 18.5709 9.72874 19.0842C9.97247 19.3087 10.2668 19.3133 10.4505 19.3133C11.0974 19.3133 11.388 18.7909 11.7114 18.1676C12.1098 17.4068 12.4613 16.5223 12.4613 16.5223C12.4613 16.5223 12.0207 18.9146 13.2253 18.9146C13.6659 18.9146 14.1064 18.3601 14.3033 18.0759V18.0805C14.3033 18.0805 14.3127 18.0622 14.3361 18.0255C14.383 17.9568 14.4064 17.9155 14.4064 17.9155V17.9018C14.5845 17.6039 14.9735 16.921 15.5594 15.7936C16.3187 14.3362 17.0443 12.5168 17.0443 12.5168C17.1146 12.9164 17.2121 13.3115 17.3349 13.6992C17.4661 14.1346 17.7426 14.6112 17.9629 15.0741C17.7848 15.3124 17.677 15.4499 17.677 15.4499C17.677 15.4535 17.6789 15.4563 17.6817 15.459C17.5411 15.6424 17.3817 15.8394 17.2177 16.0319C16.6187 16.7285 15.9053 17.526 15.8116 17.7551C15.6991 18.0255 15.7272 18.2272 15.9428 18.383C16.1022 18.5021 16.3834 18.5205 16.6787 18.4975C17.2177 18.4609 17.5973 18.3326 17.7801 18.2501C18.1173 18.132 18.4359 17.9684 18.7269 17.7643C19.3128 17.3426 19.669 16.7377 19.6362 15.9403C19.6175 15.5003 19.4722 15.0603 19.294 14.6479C19.3456 14.5745 19.4018 14.4966 19.4534 14.4187C20.0633 13.5288 20.6129 12.6008 21.0986 11.6405C21.1689 12.0402 21.2654 12.4352 21.3892 12.8229C21.5016 13.1941 21.7219 13.602 21.9235 14.0007C21.0517 14.6928 20.5127 15.4948 20.3261 16.0218C19.9793 16.998 20.2511 17.438 20.762 17.5388C20.9917 17.5846 21.3198 17.4792 21.5635 17.3784C21.9254 17.2601 22.2666 17.0887 22.575 16.8697C23.1609 16.448 23.728 15.8568 23.6896 15.0548C23.6755 14.6928 23.5724 14.3307 23.4365 13.9824C24.1723 13.6799 25.1285 13.515 26.3471 13.6524C28.9568 13.9503 29.4677 15.5452 29.3693 16.2097C29.2709 16.8743 28.7225 17.2455 28.5397 17.3555C28.3569 17.4655 28.3007 17.5067 28.3147 17.5892C28.3382 17.7084 28.4225 17.7038 28.5772 17.6763C28.7928 17.6396 29.9458 17.1355 29.9974 15.9027C30.0724 14.3445 28.5397 12.6304 25.8259 12.6442L25.824 12.6451ZM5.7082 19.2767C4.84578 20.1978 3.63746 20.5461 3.1172 20.2528C2.55944 19.9357 2.77974 18.58 3.84276 17.5984C4.48957 17.0026 5.32386 16.4526 5.87693 16.1135C6.00348 16.0402 6.18628 15.9302 6.41125 15.7973C6.42953 15.7858 6.4483 15.7751 6.4675 15.7652C6.50968 15.7377 6.55655 15.7148 6.60342 15.6873C6.99151 17.0805 6.61748 18.3087 5.7082 19.2757V19.2767ZM12.0057 15.0878C11.7057 15.8074 11.0739 17.6405 10.6886 17.5443C10.3606 17.4618 10.159 16.064 10.623 14.6891C10.8574 13.9971 11.3542 13.1721 11.6495 12.8513C12.1229 12.3335 12.6431 12.1685 12.765 12.3747C12.929 12.6451 12.1932 14.6387 12.0057 15.0878ZM17.2083 17.5168C17.0818 17.581 16.9646 17.6222 16.9083 17.5901C16.8662 17.5672 16.9599 17.4801 16.9599 17.4801C16.9599 17.4801 17.6114 16.7973 17.8692 16.4856C18.0192 16.3023 18.1926 16.0869 18.3801 15.8486C18.3801 15.8715 18.3848 15.8944 18.3848 15.9219C18.3791 16.7423 17.573 17.2968 17.2074 17.5168H17.2083ZM21.2204 16.6231C21.1267 16.559 21.1407 16.3436 21.4548 15.6744C21.5766 15.4132 21.8579 14.9733 22.3453 14.5516C22.4006 14.7111 22.4306 14.8779 22.4344 15.0466C22.4297 16.0777 21.6751 16.4627 21.2204 16.6231Z" fill="#383838"/>
</svg>
