<svg width="17" height="11" viewBox="0 0 17 11" fill="none" xmlns="http://www.w3.org/2000/svg">
<path d="M3.304 10V1.74H0.056V0.199999H8.372V1.74H5.124V10H3.304ZM12.6802 10.14C11.9148 10.14 11.1822 10.0327 10.4822 9.818C9.78217 9.594 9.22684 9.30933 8.81617 8.964L9.44617 7.55C9.83817 7.858 10.3235 8.11467 10.9022 8.32C11.4808 8.52533 12.0735 8.628 12.6802 8.628C13.1935 8.628 13.6088 8.572 13.9262 8.46C14.2435 8.348 14.4768 8.19867 14.6262 8.012C14.7755 7.816 14.8502 7.59667 14.8502 7.354C14.8502 7.05533 14.7428 6.81733 14.5282 6.64C14.3135 6.45333 14.0335 6.30867 13.6882 6.206C13.3522 6.094 12.9742 5.99133 12.5542 5.898C12.1435 5.80467 11.7282 5.69733 11.3082 5.576C10.8975 5.44533 10.5195 5.282 10.1742 5.086C9.83817 4.88067 9.56284 4.61 9.34817 4.274C9.13351 3.938 9.02617 3.50867 9.02617 2.986C9.02617 2.454 9.16617 1.96867 9.44617 1.53C9.73551 1.082 10.1695 0.727333 10.7482 0.465999C11.3362 0.195333 12.0782 0.0599995 12.9742 0.0599995C13.5622 0.0599995 14.1455 0.134666 14.7242 0.284C15.3028 0.433333 15.8068 0.648 16.2362 0.928L15.6622 2.342C15.2235 2.08067 14.7708 1.88933 14.3042 1.768C13.8375 1.63733 13.3895 1.572 12.9602 1.572C12.4562 1.572 12.0455 1.63267 11.7282 1.754C11.4202 1.87533 11.1915 2.034 11.0422 2.23C10.9022 2.426 10.8322 2.65 10.8322 2.902C10.8322 3.20067 10.9348 3.44333 11.1402 3.63C11.3548 3.80733 11.6302 3.94733 11.9662 4.05C12.3115 4.15267 12.6942 4.25533 13.1142 4.358C13.5342 4.45133 13.9495 4.55867 14.3602 4.68C14.7802 4.80133 15.1582 4.96 15.4942 5.156C15.8395 5.352 16.1148 5.618 16.3202 5.954C16.5348 6.29 16.6422 6.71467 16.6422 7.228C16.6422 7.75067 16.4975 8.236 16.2082 8.684C15.9282 9.12267 15.4942 9.47733 14.9062 9.748C14.3182 10.0093 13.5762 10.14 12.6802 10.14Z" fill="#383838"/>
</svg>
